PathFileType	4	(X/Y/Z)	Patient4_TMGait_0pt3_01_left_14.trc.trc
DataRate	CameraRate	NumFrames	NumMarkers	Units	OrigDataRate	OrigDataStartFrame	OrigNumFrames
53.030303030303	53.030303030303	4	33	mm	53.030303030303	1	       141
Frame#	Time	Sacral			L.Shoulder			Chest			R.Shoulder			Neck			R.ASIS			L.ASIS			R.Thigh.Superior			R.Thigh.Lateral			R.Thigh.Inferior			R.Patella			L.Thigh.Superior			L.Thigh.Lateral			L.Thigh.Inferior			L.Patella			L.Shank.Superior			L.Shank.Lateral			L.Shank.Inferior			R.Shank.Superior			R.Shank.Lateral			R.Shank.Inferior			R.Heel			R.Midfoot.Superior			R.Midfoot.Lateral			R.Toe			L.Heel			L.Midfoot.Lateral			L.Midfoot.Superior			L.Toe			L.Elbow			L.Wrist			R.Elbow			R.Wrist			
		X1	Y1	Z1	X2	Y2	Z2	X3	Y3	Z3	X4	Y4	Z4	X5	Y5	Z5	X6	Y6	Z6	X7	Y7	Z7	X8	Y8	Z8	X9	Y9	Z9	X10	Y10	Z10	X11	Y11	Z11	X12	Y12	Z12	X13	Y13	Z13	X14	Y14	Z14	X15	Y15	Z15	X16	Y16	Z16	X17	Y17	Z17	X18	Y18	Z18	X19	Y19	Z19	X20	Y20	Z20	X21	Y21	Z21	X22	Y22	Z22	X23	Y23	Z23	X24	Y24	Z24	X25	Y25	Z25	X26	Y26	Z26	X27	Y27	Z27	X28	Y28	Z28	X29	Y29	Z29	X30	Y30	Z30	X31	Y31	Z31	X32	Y32	Z32	X33	Y33	Z33	

1	25.910000000000	768.626141493567	1001.046147984039	557.776736982707	965.590045201893	1429.577649047167	387.530854067907	1040.813478621933	1365.794583574321	565.212054182221	927.883888063480	1441.763971573525	720.576260604312	926.519387489401	1494.618199129762	540.803546249538	987.234736295603	946.335590376351	700.762172338856	998.650072246867	956.286585245244	425.882504268066	1033.824399877211	742.925329179196	668.225623737951	948.549074497227	629.510196832056	716.240808758249	1031.576127051212	580.243043440650	641.278770151589	1030.642776735627	489.702964180642	644.634333751340	1046.602833982011	742.553202132906	452.585432470888	974.246414289582	626.984605131205	373.093788243941	1057.621704397908	544.259086137782	439.830614575411	1051.909467121941	457.785184471152	431.134330571633	980.860641541576	403.021241411776	415.723171972620	842.202098270508	369.592055047845	356.227239153984	817.690653826191	239.431283356273	403.362507719976	996.915358230474	401.820809282811	645.891676980726	916.160599304965	300.851074225017	698.996882792683	956.904735695716	205.346803960263	636.160870933557	815.709277927731	45.081818878267	594.690092163635	984.640833321910	97.603807188872	645.273353056615	892.364976927493	38.082982254617	676.105967058415	1100.785558080461	42.298395333420	684.129005982456	623.840527147133	197.196135196733	431.040654430900	673.827618965180	137.937662288965	355.303607159065	777.613114371655	127.586806212851	378.209425782352	839.023058599622	30.125167353721	360.974383311184	1015.931632170678	1082.161079129136	267.713189146940	1241.725526444164	950.411013147052	298.786431144139	854.719576769969	1112.730096737773	862.060084390218	1042.346467074285	937.296882438107	905.092363721884	
2	25.928857142857	767.322687560462	998.662286409650	562.160611475735	961.151615606269	1426.943575643500	387.929193238346	1039.052392021737	1364.117842365440	564.709626925472	928.328814205995	1440.521235300121	721.348593513119	924.656341666493	1492.766441935157	541.517250665820	987.709591097496	944.856652094743	702.299066394248	996.159551356281	954.794604937440	427.314031366590	1034.726748568513	741.683189061747	669.253248572997	950.361490066531	627.809760856498	717.677130281274	1032.973465710630	578.874948776845	641.929599022484	1032.268324722611	487.585215535786	645.165984100813	1050.391134595643	745.468952634604	455.482665967026	983.556659121473	628.284160790864	375.057737438059	1069.271311957983	548.292876844824	442.556814602437	1065.927893552794	460.781599175980	433.339604540579	993.814370489141	405.416339210932	417.738339120264	853.935986376126	375.698366922973	359.028195833995	827.138007605598	245.689342721382	405.304010998487	996.767812914279	399.857004456478	646.267813438851	914.783734318011	299.998419505073	699.616148071564	953.428167076287	204.205225871263	636.214136934209	809.887433935423	45.111251757461	594.855153250097	978.971919550458	97.584715623752	645.389317800007	886.575878596311	38.042017748191	676.224885701301	1095.027610753519	42.067247771804	684.224502244830	633.951655367126	211.502651440376	434.213026506731	680.209265263673	150.361328634052	357.621265118240	783.357345286868	134.144516103605	379.718973793041	836.766977327897	28.387074061835	360.580318332514	1004.121746568813	1076.998076193960	271.882590733226	1213.203047965414	925.752529726223	299.740910361969	866.930778271242	1111.052476700957	866.269490129798	1065.308178854462	951.485619165482	906.303916838512	
3	25.947714285714	765.982577835297	996.274820618909	566.480654050418	956.633750357314	1424.300325278168	388.312185354076	1037.256328998558	1362.429698559865	564.156694942978	928.795357378904	1439.261582374792	722.113097051100	922.755704599170	1490.904641881169	542.216110763791	988.191944876198	943.383994834357	703.782048989768	993.575661347989	953.294318614893	428.705882815791	1035.612434956365	740.407944187822	670.229626471990	952.137232257591	626.077081402819	719.030438687069	1034.343517120743	577.473717555202	642.509780635894	1033.844999832162	485.429286258436	645.608016925051	1054.070503369856	748.469328172098	458.224112633419	992.673322490816	629.679179337060	376.963843165627	1080.830481276953	552.507152969508	445.089744354156	1079.874730330577	463.975796731148	435.393055919405	1006.749107933089	407.946444463055	419.671780330389	865.537190203108	381.701958031223	362.006639944667	836.768432674133	251.701876877383	407.377425265452	996.558887753737	397.863418147088	646.573725847225	913.333769247875	299.147604002869	700.181844451226	949.853905236940	203.054896055349	636.241325708619	803.940033862010	45.157071906060	595.015899429553	973.170702072156	97.543661172566	645.478841900556	880.664351299952	38.013150315121	676.345752543662	1089.142196299548	41.828886322668	684.326933852855	644.068231307992	224.484483731874	437.812113005658	686.961210088318	161.941829155480	360.182946206049	789.695309086145	140.599556710620	381.304609857067	836.060966233953	27.156853870021	359.915496626579	991.824014014082	1071.842361695045	276.093460062833	1183.334491280331	901.391232187440	300.784446230155	879.680074532534	1109.424110223891	870.365917495020	1088.690202508861	966.345489953377	907.086534947855	
4	25.966571428571	764.634665283868	993.983676292204	570.582875718362	952.126978111690	1421.750498998089	388.656595272919	1035.468700669414	1360.797522959510	563.529685574789	929.305137315293	1438.040027680848	722.831916336507	920.863704763052	1489.107481870301	542.867150331961	988.659390758420	941.963061510679	705.119790989573	990.913757937314	951.856020044066	429.980339792335	1036.413531146054	739.128595700933	671.075993926274	953.762577234562	624.368026604619	720.214211488045	1035.572987786191	576.073688057012	642.955967589823	1035.238633608898	483.298534161780	645.901394469907	1057.458709737505	751.521496982353	460.654793154966	1001.197248361504	631.181344735530	378.716459839404	1091.847221947415	556.853330336695	447.269595690819	1093.243238534308	467.377384269945	437.162491034559	1019.259918589339	410.597994941220	421.414277200047	876.653410343078	387.258335585602	365.094768490968	846.520607270848	257.081010019388	409.534396071696	996.210497222131	395.902410657209	646.768863905710	911.771813312377	298.331737949314	700.651655328839	946.209460387817	201.933011532861	636.229520616368	797.968837613358	45.224360998880	595.165649874030	967.333894440509	97.478118981081	645.533915861342	874.730959579439	38.000572672428	676.463539695003	1083.227881463163	41.589246913823	684.435891591383	654.129114550388	234.958753719140	441.818787146126	694.298076496168	171.776530678992	362.946000754678	796.909641497165	146.583217702258	382.915072941323	837.836368377381	26.613382878857	358.881957027778	979.118858023544	1066.915461923454	280.220484762926	1152.364381112244	878.311286934758	301.940091737963	892.882221012258	1107.970998627665	874.145329181034	1111.978797284718	981.828375245633	907.148659824975	
